<svg viewBox="-266.48959847651133 -100 706.6297766909496 200" xmlns="http://www.w3.org/2000/svg" xmlns:xlink="http://www.w3.org/1999/xlink" version="1.1" class="jsx-2263963463 artboard-inner" style="width: 338px; height: 95.6654px; max-height: 100%;"><g transform="translate(-1.7276340405554034 43.99952328861864) scale(1.4114657194080091)" fill="#FFFFFF"><g id="line1"><path d="M37.800-6.624C33.192-6.624 29.016-7.344 25.416-8.856C21.888-10.296 18.864-12.456 16.272-15.048C13.536-17.640 11.520-20.736 10.080-24.264C8.568-27.792 7.776-31.608 7.776-35.424C7.776-39.312 8.568-43.056 10.080-46.656C11.520-50.112 13.536-53.208 16.272-55.800C18.864-58.464 21.888-60.480 25.416-61.920C28.944-63.432 32.760-64.296 36.648-64.296C41.472-64.296 45.864-62.928 50.688-60.192L53.856-65.952C48.096-69.264 42.696-70.848 36.648-70.848C31.752-70.848 27.072-69.984 22.752-68.112C18.648-66.240 14.832-63.720 11.592-60.480C8.280-57.168 5.760-53.352 3.960-49.248C2.088-45.000 1.224-40.248 1.224-35.424C1.224-30.672 2.160-25.920 3.960-21.600C5.760-17.496 8.352-13.608 11.592-10.368C14.832-7.056 18.648-4.464 22.752-2.736C27.072-0.864 32.112 0 37.800 0ZM29.304-51.048L30.168-46.944C30.528-45.720 30.600-44.424 30.384-43.128C30.168-41.544 29.880-40.032 29.592-38.376L29.592-38.448L29.160-36.360C29.016-35.712 28.872-35.064 28.800-34.272C28.656-33.336 28.512-32.400 28.512-31.464C28.512-27.864 30.168-24.840 33.336-22.464L36.072-20.664L35.352-24.480C34.848-25.776 34.704-27.000 34.920-28.368C35.136-30.024 35.424-31.680 35.712-32.904L36.000-33.984L36.288-34.992L36.504-36.072L36.792-37.152C36.936-37.944 37.008-38.808 37.008-39.672C37.008-43.488 35.496-46.584 32.616-48.600Z"></path><path d="M65.016-53.568C52.416-53.568 42.912-42.912 42.912-31.464C42.912-18.864 53.640-9.360 65.016-9.360C77.616-9.360 87.120-20.088 87.120-31.464C87.120-44.064 76.464-53.568 65.016-53.568ZM65.016-15.840C56.304-15.840 49.392-23.184 49.392-31.464C49.392-40.248 56.736-47.088 65.016-47.088C73.800-47.088 80.712-39.744 80.712-31.464C80.712-22.752 73.368-15.840 65.016-15.840ZM51.768 0L78.336 0L78.336-6.480L51.768-6.480Z"></path><path d="M120.672-52.848L114.048-52.848L106.488-17.424L99-52.848L92.448-52.848L103.536 0L109.512 0Z"></path><path d="M132.912-44.856L132.912-52.848L126.432-52.848L126.432-44.856ZM126.432-41.472L126.432 0L132.912 0L132.912-41.472Z"></path><path d="M138.888 0C155.880 0.072 167.472-11.376 167.472-26.424C167.472-41.040 155.736-52.848 138.888-52.848ZM160.992-26.424C160.992-16.848 154.440-8.928 145.296-6.984L145.296-45.864C153.792-43.488 160.992-35.712 160.992-26.424Z"></path><path d=""></path><path d="M219.888-6.624C215.280-6.624 211.104-7.344 207.504-8.856C203.976-10.296 200.952-12.456 198.360-15.048C195.624-17.640 193.608-20.736 192.168-24.264C190.656-27.792 189.864-31.608 189.864-35.424C189.864-39.312 190.656-43.056 192.168-46.656C193.608-50.112 195.624-53.208 198.360-55.800C200.952-58.464 203.976-60.480 207.504-61.920C211.032-63.432 214.848-64.296 218.736-64.296C223.560-64.296 227.952-62.928 232.776-60.192L235.944-65.952C230.184-69.264 224.784-70.848 218.736-70.848C213.840-70.848 209.160-69.984 204.840-68.112C200.736-66.240 196.920-63.720 193.680-60.480C190.368-57.168 187.848-53.352 186.048-49.248C184.176-45.000 183.312-40.248 183.312-35.424C183.312-30.672 184.248-25.920 186.048-21.600C187.848-17.496 190.440-13.608 193.680-10.368C196.920-7.056 200.736-4.464 204.840-2.736C209.160-0.864 214.200 0 219.888 0ZM211.392-51.048L212.256-46.944C212.616-45.720 212.688-44.424 212.472-43.128C212.256-41.544 211.968-40.032 211.680-38.376L211.680-38.448L211.248-36.360C211.104-35.712 210.960-35.064 210.888-34.272C210.744-33.336 210.600-32.400 210.600-31.464C210.600-27.864 212.256-24.840 215.424-22.464L218.160-20.664L217.440-24.480C216.936-25.776 216.792-27.000 217.008-28.368C217.224-30.024 217.512-31.680 217.800-32.904L218.088-33.984L218.376-34.992L218.592-36.072L218.880-37.152C219.024-37.944 219.096-38.808 219.096-39.672C219.096-43.488 217.584-46.584 214.704-48.600Z"></path><path d="M243.216-52.848L237.024-52.848L225.504 0L232.128 0C232.992-3.744 234.072-8.280 234.864-12.240L240.120-10.224L245.160-12.240L247.824 0L254.376 0ZM240.120-17.136C238.752-17.640 237.528-18.288 236.232-18.792C237.600-25.056 238.752-30.168 240.120-36.216C241.704-28.656 242.280-25.848 243.792-18.648Z"></path><path d="M271.656-52.848L259.920-52.848L259.920 0L266.400 0L266.400-12.960L270.432-12.960L275.256 0L282.096 0L277.200-13.752C285.624-16.056 291.528-23.688 291.528-32.760L291.528-33.048C291.528-43.920 282.600-52.848 271.656-52.848ZM285.120-32.760C285.120-25.272 278.712-19.440 271.656-19.440L266.400-19.440L266.400-46.368L271.656-46.368C279.144-46.368 285.120-40.104 285.120-33.048Z"></path><path d="M313.056-46.368L313.056-52.848L296.640-52.848L296.640 0L313.056 0L313.056-6.480L303.120-6.480L303.120-13.104L309.096-13.104L309.096-19.584L303.120-19.584L303.120-46.368Z"></path></g></g><g transform="translate(-266.48959847651133 -117.43279234095294) scale(1.8350307727318895)" id="logomark"><g fill="#FFFFFF"><path d="M64 62a18 18 0 1 0 18 18 18 18 0 0 0-18-18zm0 32a14 14 0 1 1 14-14 14 14 0 0 1-14 14z"></path><circle cx="64" cy="80" r="2"></circle><circle cx="56" cy="80" r="2"></circle><circle cx="72" cy="80" r="2"></circle><path d="M61 85.21a2 2 0 1 0 .72 2.79 2 2 0 0 0-.72-2.79zM67 74.79a2 2 0 0 0 1 .29 2 2 0 1 0-1-.29zM67 85.21a2 2 0 1 0 2.75.69 2 2 0 0 0-2.75-.69zM60 75.08a2 2 0 0 0 1-.29 2 2 0 1 0-1 .29z"></path><path d="M121.53 66a2 2 0 0 0-2.63 3c3.38 2.95 5.1 6 5.1 9.14 0 5.82-6.23 11.62-16.92 16A69.34 69.34 0 0 0 115 63.28a47.43 47.43 0 0 0-1.41-11.82C123 46.92 128 41.27 128 35.07 128 20.73 99.89 9.5 64 9.5S0 20.73 0 35.07c0 6.14 4.91 11.74 14.2 16.26a46.77 46.77 0 0 0-1.44 12A69.36 69.36 0 0 0 20.56 94C10.1 89.64 4 83.9 4 78.15 4 75 5.72 72 9.1 69a2 2 0 0 0-2.63-3C2.18 69.73 0 73.82 0 78.15c0 8.47 8.7 16.21 23.87 21.32a52 52 0 0 0 3.62 4.7c7.68 8.78 24.66 14.23 36.18 14.32h.38c11.52-.09 28.5-5.54 36.17-14.32a49.06 49.06 0 0 0 3.54-4.57C119.17 94.49 128 86.69 128 78.15c0-4.33-2.18-8.42-6.47-12.15zM4 35.07C4 24.65 28.11 13.5 64 13.5s60 11.15 60 21.57c0 4.43-4.19 8.86-11.83 12.61-2.33-4.91-6.13-7.93-11.55-11.42-7.88-5.09-24-12.62-36.53-12.75h-.46c-12.49.13-28.63 7.66-36.54 12.75-5.38 3.47-9.16 6.46-11.49 11.31C8.1 43.84 4 39.44 4 35.07zm59.86 79.43c-12 0-27.23-6-33.35-13-.44-.5-.85-1-1.26-1.54h5.48a2 2 0 0 0 0-4H26.4c-7.18-11.25-9.77-25.09-9.65-32.66A41.72 41.72 0 0 1 18.14 52h7.59a2 2 0 1 0 0-4h-5.84c2-3.29 5-5.57 9.37-8.38 7.25-4.67 23-12.07 34.6-12.12s27.35 7.5 34.6 12.12c4.35 2.81 7.38 5.09 9.37 8.38h-5.56a2 2 0 1 0 0 4h7.29A42.12 42.12 0 0 1 111 63.34c.12 7.57-2.46 21.41-9.64 32.66h-8a2 2 0 1 0 0 4h5.19c-.41.52-.81 1-1.25 1.54-6.21 7-21.46 12.92-33.44 12.96z"></path></g></g></svg>